<svg width="61" height="61" viewBox="0 0 61 61" fill="none" xmlns="http://www.w3.org/2000/svg">
<g id="globe">
<path id="Vector" d="M30.689 0.421631C14.1215 0.421631 0.688965 13.8541 0.688965 30.4216C0.688965 46.9891 14.1215 60.4216 30.689 60.4216C47.2565 60.4216 60.689 46.9891 60.689 30.4216C60.689 13.8541 47.2565 0.421631 30.689 0.421631ZM48.0843 16.1538C47.8283 16.3732 47.5199 16.5973 47.2752 16.8129C45.419 18.4282 44.6015 19.0835 43.0752 19.1416C42.6533 19.1566 42.254 19.1716 41.8733 19.1716C40.5327 19.1716 40.1962 18.9926 39.7715 18.6148C39.5558 18.4207 39.5408 18.0251 39.8737 16.0657C40.064 14.9519 40.2543 13.7876 40.2871 12.5688C40.3058 11.7373 40.4596 10.9976 40.6349 10.2616C43.5177 11.6866 46.0621 13.6929 48.0843 16.1538ZM32.5058 45.671C31.5721 47.3669 30.5502 47.9819 28.1221 49.3291L27.0083 49.9516C25.5693 50.7869 24.2765 51.2154 22.9105 51.5116C18.4208 49.856 14.5977 46.8316 11.9793 42.9166C12.0712 42.0307 12.5868 41.5469 14.9783 40.1294C16.5571 39.1919 18.5193 38.0276 20.1862 36.1779C21.4499 34.7679 22.1568 33.1235 22.724 31.8016C22.724 31.8016 22.724 31.7941 22.7277 31.7904C23.2443 32.951 23.9915 34.3282 25.3977 35.4344C27.3571 37.0019 29.4337 37.3751 30.9496 37.6498C32.308 37.8916 32.6305 38.0013 32.8462 38.2723C33.853 39.551 34.7212 41.5507 32.5058 45.671ZM37.1268 51.9729C37.8187 51.2144 38.4852 50.3576 39.0899 49.256C43.1033 41.8076 41.1112 36.6476 38.7271 33.6223C36.7021 31.0657 34.0396 30.5866 32.278 30.2679C31.1793 30.0701 30.5352 29.9379 30.0552 29.5573C29.8499 29.396 29.5499 28.6854 29.3333 28.1698C28.6555 26.5619 27.3927 23.5666 23.5987 23.0426C18.5305 22.3948 16.769 26.6604 15.8315 28.8438C15.4433 29.7448 15.0402 30.6823 14.608 31.166C13.7108 32.1588 12.4658 32.8985 11.1477 33.6823C10.3827 34.136 9.5474 34.6638 8.72709 35.2713C8.38303 33.7066 8.18896 32.0876 8.18896 30.4216C8.18896 17.996 18.2633 7.92163 30.689 7.92163C31.6049 7.92163 32.5058 7.99101 33.3918 8.10069C33.0655 9.37476 32.8246 10.7773 32.7871 12.3776C32.7655 13.2166 32.6146 14.0257 32.4833 14.7982C32.0512 17.3248 31.3958 21.1413 34.754 24.1919C37.2074 26.3754 39.7312 26.6716 41.8733 26.6716C42.3421 26.6716 42.8324 26.6529 43.349 26.6351C47.3587 26.4851 49.7502 24.5773 51.8305 22.7829C52.6949 25.1698 53.189 27.7338 53.189 30.4216C53.189 40.6094 46.4137 49.2044 37.1268 51.9729Z" fill="#394240"/>
<g id="Group">
<path id="Vector_2" d="M40.6349 10.2616C40.4587 10.9975 40.3049 11.7372 40.2871 12.5688C40.2543 13.7885 40.064 14.9528 39.8737 16.0657C39.5409 18.025 39.5549 18.4207 39.7715 18.6147C40.1962 18.9925 40.5327 19.1716 41.8734 19.1716C42.254 19.1716 42.6534 19.1566 43.0743 19.1425C44.6015 19.0844 45.4181 18.4282 47.2743 16.8138C47.5199 16.5982 47.8274 16.3741 48.0834 16.1547C46.0621 13.6928 43.5177 11.6866 40.6349 10.2616Z" fill="#F9EBB2"/>
<path id="Vector_3" d="M30.9488 37.6506C29.4329 37.3759 27.3563 37.0028 25.397 35.4353C23.9907 34.3291 23.2435 32.9528 22.727 31.7913C22.7232 31.795 22.7232 31.7988 22.7232 31.7988C22.156 33.1244 21.4491 34.7688 20.1854 36.1788C18.5195 38.0284 16.5563 39.1928 14.9776 40.1303C12.586 41.5478 12.0695 42.0306 11.9785 42.9175C14.597 46.8325 18.4201 49.8569 22.9098 51.5125C24.2757 51.2163 25.5685 50.7878 27.0076 49.9525L28.1213 49.33C30.5495 47.9819 31.5713 47.3669 32.5051 45.6719C34.7204 41.5516 33.8532 39.5528 32.8454 38.2741C32.6298 38.0022 32.3082 37.8925 30.9488 37.6506Z" fill="#F9EBB2"/>
</g>
<path id="Vector_4" d="M37.1268 51.9729C37.8187 51.2144 38.4852 50.3576 39.0899 49.256C43.1033 41.8076 41.1112 36.6476 38.7271 33.6223C36.7021 31.0657 34.0396 30.5866 32.278 30.2679C31.1793 30.0701 30.5352 29.9379 30.0552 29.5573C29.8499 29.396 29.5499 28.6854 29.3333 28.1698C28.6555 26.5619 27.3927 23.5666 23.5987 23.0426C18.5305 22.3948 16.769 26.6604 15.8315 28.8438C15.4433 29.7448 15.0402 30.6823 14.608 31.166C13.7108 32.1588 12.4658 32.8985 11.1477 33.6823C10.3827 34.136 9.5474 34.6638 8.72709 35.2713C8.38303 33.7066 8.18896 32.0876 8.18896 30.4216C8.18896 17.996 18.2633 7.92163 30.689 7.92163C31.6049 7.92163 32.5058 7.99101 33.3918 8.10069C33.0655 9.37476 32.8246 10.7773 32.7871 12.3776C32.7655 13.2166 32.6146 14.0257 32.4833 14.7982C32.0512 17.3248 31.3958 21.1413 34.754 24.1919C37.2074 26.3754 39.7312 26.6716 41.8733 26.6716C42.3421 26.6716 42.8324 26.6529 43.349 26.6351C47.3587 26.4851 49.7502 24.5773 51.8305 22.7829C52.6949 25.1698 53.189 27.7338 53.189 30.4216C53.189 40.6094 46.4137 49.2044 37.1268 51.9729Z" fill="#45AAB8"/>
</g>
</svg>
